<svg xmlns="http://www.w3.org/2000/svg" viewBox="0 0 1883.52 356" width="1883.52" height="356" style="--bg:#FFFFFF;--fg:#27272A;background:var(--bg)">
<style>
  @import url('https://fonts.googleapis.com/css2?family=Inter:wght@400;500;600;700&amp;display=swap');
  text { font-family: 'Inter', system-ui, sans-serif; }
  svg {
    /* Derived from --bg and --fg (overridable via --line, --accent, etc.) */
    --_text:          var(--fg);
    --_text-sec:      var(--muted, color-mix(in srgb, var(--fg) 60%, var(--bg)));
    --_text-muted:    var(--muted, color-mix(in srgb, var(--fg) 40%, var(--bg)));
    --_text-faint:    color-mix(in srgb, var(--fg) 25%, var(--bg));
    --_line:          var(--line, color-mix(in srgb, var(--fg) 30%, var(--bg)));
    --_arrow:         var(--accent, color-mix(in srgb, var(--fg) 50%, var(--bg)));
    --_node-fill:     var(--surface, color-mix(in srgb, var(--fg) 3%, var(--bg)));
    --_node-stroke:   var(--border, color-mix(in srgb, var(--fg) 20%, var(--bg)));
    --_group-fill:    var(--bg);
    --_group-hdr:     color-mix(in srgb, var(--fg) 5%, var(--bg));
    --_inner-stroke:  color-mix(in srgb, var(--fg) 12%, var(--bg));
    --_key-badge:     color-mix(in srgb, var(--fg) 10%, var(--bg));
  }
</style>
<defs>
  <marker id="arrowhead" markerWidth="8" markerHeight="4.8" refX="8" refY="2.4" orient="auto">
    <polygon points="0 0, 8 2.4, 0 4.8" fill="var(--_arrow)" />
  </marker>
  <marker id="arrowhead-start" markerWidth="8" markerHeight="4.8" refX="0" refY="2.4" orient="auto-start-reverse">
    <polygon points="8 0, 0 2.4, 8 4.8" fill="var(--_arrow)" />
  </marker>
</defs>
<polyline points="186.4,178 226.40000000000003,178" fill="none" stroke="var(--_line)" stroke-width="0.75" marker-end="url(#arrowhead)" />
<polyline points="444.3,178 484.30000000000007,178" fill="none" stroke="var(--_line)" stroke-width="0.75" marker-end="url(#arrowhead)" />
<polyline points="609.2500000000001,178 629.25,178 629.25,58 674.275,58" fill="none" stroke="var(--_line)" stroke-width="0.75" marker-end="url(#arrowhead)" />
<polyline points="609.2500000000001,178 629.25,178 629.25,118 688.875,118" fill="none" stroke="var(--_line)" stroke-width="0.75" marker-end="url(#arrowhead)" />
<polyline points="609.2500000000001,178 677.85,178" fill="none" stroke="var(--_line)" stroke-width="0.75" marker-end="url(#arrowhead)" />
<polyline points="609.2500000000001,178 629.25,178 629.25,238 649.25,238" fill="none" stroke="var(--_line)" stroke-width="0.75" marker-end="url(#arrowhead)" />
<polyline points="609.2500000000001,178 629.25,178 629.25,298 681.425,298" fill="none" stroke="var(--_line)" stroke-width="0.75" marker-end="url(#arrowhead)" />
<polyline points="763.475,58 870.1691922135448,58 870.1691922135448,136.3308077864553" fill="none" stroke="var(--_line)" stroke-width="0.75" marker-end="url(#arrowhead)" />
<polyline points="748.875,118 857.4270108431786,118 857.4270108431786,149.0729891568215" fill="none" stroke="var(--_line)" stroke-width="0.75" marker-end="url(#arrowhead)" />
<polyline points="759.9,178 828.5,178" fill="none" stroke="var(--_line)" stroke-width="0.75" marker-end="url(#arrowhead)" />
<polyline points="788.5,238 857.4270108431786,238 857.4270108431786,206.9270108431785" fill="none" stroke="var(--_line)" stroke-width="0.75" marker-end="url(#arrowhead)" />
<polyline points="756.325,298 870.1691922135448,298 870.1691922135448,219.6691922135447" fill="none" stroke="var(--_line)" stroke-width="0.75" marker-end="url(#arrowhead)" />
<polyline points="967.1603184654708,167.7103184654708 1090.1100000000001,167.7103184654708 1090.1100000000001,148 1202.77,148" fill="none" stroke="var(--_line)" stroke-width="0.75" marker-end="url(#arrowhead)" />
<polyline points="967.1603184654708,188.2896815345292 1090.1100000000001,188.2896815345292 1090.1100000000001,208 1213.495,208" fill="none" stroke="var(--_line)" stroke-width="0.75" marker-end="url(#arrowhead)" />
<polyline points="1370.62,148 1480.245,148 1480.245,160" fill="none" stroke="var(--_line)" stroke-width="0.75" marker-end="url(#arrowhead)" />
<polyline points="1359.895,208 1480.245,208 1480.245,196" fill="none" stroke="var(--_line)" stroke-width="0.75" marker-end="url(#arrowhead)" />
<polyline points="1549.87,178 1589.87,178" fill="none" stroke="var(--_line)" stroke-width="0.75" marker-end="url(#arrowhead)" />
<rect x="1010.6100000000001" y="134.5" width="159" height="27" rx="4" ry="4" fill="var(--bg)" stroke="var(--_inner-stroke)" stroke-width="0.5" />
<text x="1090.1100000000001" y="148" text-anchor="middle" dy="0.35em" font-size="11" font-weight="400" fill="var(--_text-muted)">Prefer local when healthy</text>
<rect x="993.4500000000002" y="194.5" width="193.32" height="27" rx="4" ry="4" fill="var(--bg)" stroke="var(--_inner-stroke)" stroke-width="0.5" />
<text x="1090.1100000000001" y="208" text-anchor="middle" dy="0.35em" font-size="11" font-weight="400" fill="var(--_text-muted)">Avoid overloaded local instance</text>
<rect x="40" y="160" width="146.4" height="36" rx="0" ry="0" fill="var(--_node-fill)" stroke="var(--_node-stroke)" stroke-width="0.75" />
<rect x="226.40000000000003" y="160" width="217.9" height="36" rx="0" ry="0" fill="var(--_node-fill)" stroke="var(--_node-stroke)" stroke-width="0.75" />
<rect x="484.30000000000007" y="160" width="124.95" height="36" rx="0" ry="0" fill="var(--_node-fill)" stroke="var(--_node-stroke)" stroke-width="0.75" />
<rect x="674.275" y="40" width="89.2" height="36" rx="0" ry="0" fill="var(--_node-fill)" stroke="var(--_node-stroke)" stroke-width="0.75" />
<rect x="688.875" y="100" width="60" height="36" rx="0" ry="0" fill="var(--_node-fill)" stroke="var(--_node-stroke)" stroke-width="0.75" />
<rect x="677.85" y="160" width="82.05000000000001" height="36" rx="0" ry="0" fill="var(--_node-fill)" stroke="var(--_node-stroke)" stroke-width="0.75" />
<rect x="649.25" y="220" width="139.25" height="36" rx="0" ry="0" fill="var(--_node-fill)" stroke="var(--_node-stroke)" stroke-width="0.75" />
<rect x="681.425" y="280" width="74.9" height="36" rx="0" ry="0" fill="var(--_node-fill)" stroke="var(--_node-stroke)" stroke-width="0.75" />
<polygon points="902.975,103.525 977.45,178 902.975,252.475 828.5,178" fill="var(--_node-fill)" stroke="var(--_node-stroke)" stroke-width="0.75" />
<rect x="1202.77" y="130" width="167.85000000000002" height="36" rx="0" ry="0" fill="var(--_node-fill)" stroke="var(--_node-stroke)" stroke-width="0.75" />
<rect x="1213.495" y="190" width="146.4" height="36" rx="0" ry="0" fill="var(--_node-fill)" stroke="var(--_node-stroke)" stroke-width="0.75" />
<rect x="1410.62" y="160" width="139.25" height="36" rx="0" ry="0" fill="var(--_node-fill)" stroke="var(--_node-stroke)" stroke-width="0.75" />
<rect x="1589.87" y="160" width="253.65" height="36" rx="0" ry="0" fill="var(--_node-fill)" stroke="var(--_node-stroke)" stroke-width="0.75" />
<text x="113.2" y="178" text-anchor="middle" dy="0.35em" font-size="13" font-weight="500" fill="var(--_text)">Incoming request</text>
<text x="335.35" y="178" text-anchor="middle" dy="0.35em" font-size="13" font-weight="500" fill="var(--_text)">Sample candidate instances</text>
<text x="546.7750000000001" y="178" text-anchor="middle" dy="0.35em" font-size="13" font-weight="500" fill="var(--_text)">Compute score</text>
<text x="718.875" y="58" text-anchor="middle" dy="0.35em" font-size="13" font-weight="500" fill="var(--_text)">Locality</text>
<text x="718.875" y="118" text-anchor="middle" dy="0.35em" font-size="13" font-weight="500" fill="var(--_text)">CPU</text>
<text x="718.875" y="178" text-anchor="middle" dy="0.35em" font-size="13" font-weight="500" fill="var(--_text)">Latency</text>
<text x="718.875" y="238" text-anchor="middle" dy="0.35em" font-size="13" font-weight="500" fill="var(--_text)">QPS / in-flight</text>
<text x="718.875" y="298" text-anchor="middle" dy="0.35em" font-size="13" font-weight="500" fill="var(--_text)">Health</text>
<text x="902.975" y="178" text-anchor="middle" dy="0.35em" font-size="13" font-weight="500" fill="var(--_text)">Best balance?</text>
<text x="1286.695" y="148" text-anchor="middle" dy="0.35em" font-size="13" font-weight="500" fill="var(--_text)">Higher LPC hit rate</text>
<text x="1286.695" y="208" text-anchor="middle" dy="0.35em" font-size="13" font-weight="500" fill="var(--_text)">Prevent hotspots</text>
<text x="1480.245" y="178" text-anchor="middle" dy="0.35em" font-size="13" font-weight="500" fill="var(--_text)">Select instance</text>
<text x="1716.695" y="178" text-anchor="middle" dy="0.35em" font-size="13" font-weight="500" fill="var(--_text)">Stable routing with LPC benefit</text>
</svg>